<?xml version="1.0" standalone="no"?>
<!DOCTYPE svg PUBLIC "-//W3C//DTD SVG 20010904//EN"
 "http://www.w3.org/TR/2001/REC-SVG-20010904/DTD/svg10.dtd">
<svg version="1.0" xmlns="http://www.w3.org/2000/svg"
 width="160.000000pt" height="160.000000pt" viewBox="0 0 160.000000 160.000000"
 preserveAspectRatio="xMidYMid meet">
<metadata>
Created by potrace 1.14, written by Peter Selinger 2001-2017
</metadata>
<g transform="translate(0.000000,160.000000) scale(0.100000,-0.100000)"
fill="#000000" stroke="none">
<path d="M30 801 c0 -741 1 -767 19 -778 10 -7 22 -9 25 -5 12 11 36 10 36 -1
0 -8 3 -7 9 1 4 8 12 14 16 14 4 0 12 -6 16 -14 5 -7 9 -8 9 -2 0 6 7 11 15
11 8 0 15 -5 15 -11 0 -7 3 -7 8 -1 11 15 32 17 32 2 0 -9 2 -9 9 1 4 8 12 14
16 14 4 0 12 -6 16 -14 5 -7 9 -8 9 -2 0 6 7 11 15 11 8 0 15 -5 15 -11 0 -6
4 -6 12 2 7 7 17 8 30 1 10 -5 18 -6 18 -1 0 10 92 8 109 -2 6 -4 11 -3 11 2
0 10 92 8 109 -2 6 -4 11 -3 11 2 0 10 92 8 109 -2 6 -4 11 -3 11 2 0 10 92 8
109 -2 6 -4 11 -4 11 1 0 4 32 8 70 8 40 0 70 -4 70 -10 0 -5 4 -4 9 3 4 8 12
14 16 14 4 0 12 -6 16 -14 5 -7 9 -8 9 -2 0 6 7 11 15 11 8 0 15 -5 15 -11 0
-6 4 -5 9 2 11 17 21 17 32 0 5 -7 9 -8 9 -2 0 6 7 11 15 11 8 0 15 -5 15 -11
0 -6 4 -5 9 2 4 8 12 14 16 14 4 0 12 -6 16 -14 5 -7 9 -8 9 -2 0 6 7 11 15
11 8 0 15 -5 15 -11 0 -6 4 -5 9 2 4 8 12 14 16 14 4 0 12 -6 16 -14 5 -7 9
-8 9 -2 0 14 30 14 30 0 0 -6 4 -5 9 2 4 8 12 14 16 14 4 0 12 -6 16 -14 5 -7
9 -8 9 -2 0 14 30 14 30 0 0 -6 4 -5 9 2 11 17 21 17 32 0 5 -7 9 -8 9 -2 0 6
7 11 15 11 8 0 15 -5 15 -11 0 -6 4 -5 9 2 4 8 12 14 16 14 4 0 12 -6 16 -14
5 -7 9 -8 9 -2 0 7 11 9 25 6 l25 -4 0 775 0 775 -770 -1 -770 0 0 -766z"/>
</g>
</svg>
